<?xml version="1.0" encoding="iso-8859-1"?><!-- Generator: Adobe Illustrator 16.0.0, SVG Export Plug-In . SVG Version: 6.00 Build 0) --><!DOCTYPE svg PUBLIC "-//W3C//DTD SVG 1.1//EN" "http://www.w3.org/Graphics/SVG/1.1/DTD/svg11.dtd"><svg version="1.1" id="Layer_1" xmlns="http://www.w3.org/2000/svg" xmlns:xlink="http://www.w3.org/1999/xlink" x="0px" y="0px" width="1000px" height="1000px" viewBox="0 0 1000 1000" style="enable-background:new 0 0 1000 1000;" xml:space="preserve"><path d="M0,500c0-90.667,22.334-174.333,67-251c44.667-76.667,105.334-137.333,182-182C325.667,22.333,409.334,0,500,0	c90.667,0,174.334,22.333,251,67c76.667,44.667,137.334,105.333,182,182c44.667,76.667,67,160.333,67,251s-22.333,174.333-67,251	c-44.666,76.667-105.333,137.333-182,182c-76.666,44.667-160.333,67-251,67c-90.666,0-174.333-22.333-251-67	c-76.666-44.667-137.333-105.333-182-182C22.334,674.333,0,590.667,0,500z M83,500c0,104,35,195.667,105,275	c32-62.667,82.667-122.333,152-179c69.334-56.667,137-92.333,203-107c-10-23.333-19.666-44.333-29-63	c-114.666,36.667-238.666,55-372,55c-26,0-45.333-0.333-58-1c0,2.667-0.166,6-0.5,10C83.167,494,83,497.333,83,500z M96,397	c14.667,1.333,36.334,2,65,2c111.334,0,217-15,317-45c-50.666-90-106.333-165-167-225c-52.666,26.667-97.833,63.667-135.5,111	C137.834,287.333,111.334,339.667,96,397z M245,829c75.334,58.667,160.334,88,255,88c49.334,0,98.334-9.333,147-28	c-13.333-114-39.333-224.333-78-331c-61.333,13.333-123.166,47-185.5,101C321.167,713,275,769.667,245,829z M398,97	c58.667,60.667,113,136.333,163,227c90.667-38,159-86.333,205-145c-77.333-64-166-96-266-96C466,83,432,87.667,398,97z M597,395	c10,21.333,21.334,48.333,34,81c49.334-4.667,103-7,161-7c41.334,0,82.334,1,123,3c-5.333-90.667-38-171.333-98-242	C773.667,294.667,700.334,349.667,597,395z M656,546c34,98.667,57,200,69,304c52.667-34,95.667-77.667,129-131	c33.334-53.333,53.334-111,60-173c-48.666-3.333-93-5-133-5C744.334,541,702.667,542.667,656,546z"/></svg>