<?xml version="1.0" encoding="utf-8"?><!-- Generator: Adobe Illustrator 16.0.0, SVG Export Plug-In . SVG Version: 6.00 Build 0) --><!DOCTYPE svg PUBLIC "-//W3C//DTD SVG 1.1//EN" "http://www.w3.org/Graphics/SVG/1.1/DTD/svg11.dtd"><svg version="1.1" id="Layer_1" xmlns="http://www.w3.org/2000/svg" xmlns:xlink="http://www.w3.org/1999/xlink" x="0px" y="0px" width="1036px" height="990px" viewBox="0 5 1036 990" enable-background="new 0 5 1036 990" xml:space="preserve"><path d="M0,120c0-33.334,11.667-60.834,35-82.5C58.333,15.833,88.667,5,126,5c36.667,0,66.333,10.666,89,32	c23.333,22,35,50.666,35,86c0,32-11.333,58.666-34,80c-23.333,22-54,33-92,33h-1c-36.667,0-66.333-11-89-33S0,153.333,0,120z M13,995V327h222v668H13z M358,995h222V622c0-23.334,2.667-41.334,8-54c9.333-22.667,23.5-41.834,42.5-57.5	c19-15.667,42.833-23.5,71.5-23.5c74.667,0,112,50.333,112,151v357h222V612c0-98.667-23.333-173.5-70-224.5S857.667,311,781,311	c-86,0-153,37-201,111v2h-1l1-2v-95H358c1.333,21.333,2,87.666,2,199C360,637.333,359.333,793.666,358,995z"/></svg>