<?xml version="1.0" standalone="no"?>
<!DOCTYPE svg PUBLIC "-//W3C//DTD SVG 20010904//EN"
 "http://www.w3.org/TR/2001/REC-SVG-20010904/DTD/svg10.dtd">
<svg version="1.0" xmlns="http://www.w3.org/2000/svg"
 width="152.000000pt" height="152.000000pt" viewBox="0 0 152.000000 152.000000"
 preserveAspectRatio="xMidYMid meet">
<metadata>
Created by potrace 1.13, written by Peter Selinger 2001-2015
</metadata>
<g transform="translate(0.000000,152.000000) scale(0.100000,-0.100000)"
fill="#000000" stroke="none">
<path d="M612 1494 c-270 -56 -477 -242 -566 -506 -24 -74 -28 -96 -31 -210
-5 -161 32 -295 116 -422 61 -91 98 -131 183 -196 132 -99 274 -147 441 -147
538 -3 901 537 696 1035 -135 326 -496 518 -839 446z m285 -119 c139 -26 301
-138 385 -267 58 -89 61 -85 -55 -84 -226 2 -277 -47 -366 -352 -64 -221 -104
-282 -166 -254 -40 19 -71 96 -99 252 -20 109 -65 227 -105 274 -44 51 -147
72 -268 53 -54 -8 -54 -2 -4 82 91 152 258 271 424 301 52 9 193 6 254 -5z
m445 -480 l37 -7 6 -64 c28 -261 -118 -519 -359 -633 -86 -41 -212 -65 -306
-58 -328 26 -574 280 -586 608 -3 73 -1 99 10 108 19 16 143 38 189 35 20 -2
45 -8 55 -13 31 -16 59 -92 95 -253 48 -209 78 -267 161 -310 50 -25 118 -21
171 12 70 43 104 115 185 390 38 131 65 174 117 187 41 11 164 9 225 -2z"/>
</g>
</svg>
